<?xml version="1.0" standalone="no"?>
<!DOCTYPE svg PUBLIC "-//W3C//DTD SVG 20010904//EN"
 "http://www.w3.org/TR/2001/REC-SVG-20010904/DTD/svg10.dtd">
<svg version="1.0" xmlns="http://www.w3.org/2000/svg"
 width="128.000000pt" height="128.000000pt" viewBox="0 0 128.000000 128.000000"
 preserveAspectRatio="xMidYMid meet">
<metadata>
Created by potrace 1.14, written by Peter Selinger 2001-2017
</metadata>
<g transform="translate(0.000000,128.000000) scale(0.100000,-0.100000)"
fill="#000000" stroke="none">
<path d="M562 1094 c-104 -37 -141 -104 -177 -316 -11 -64 -12 -65 -78 -72
-127 -13 -239 -44 -281 -77 -27 -21 -28 -25 -22 -87 11 -111 68 -200 172 -268
149 -96 444 -128 726 -79 60 11 151 46 203 79 108 70 160 152 172 277 5 52 3
57 -23 78 -42 33 -154 64 -282 77 -66 7 -64 5 -76 74 -25 146 -49 214 -90 258
-54 60 -165 85 -244 56z"/>
</g>
</svg>
